# xmcd
#
# Track frame offsets:
#	150
#	17165
#	35675
#	56150
#	74142
#	101835
#	121680
#	136885
#	158172
#	176172
#	195287
#	210342
#	225185
#	243717
#	259457
#	276872
#	294565
#	312622
#	332897
#
# Disc length: 4678 seconds
#
# Revision: 5
# Processed by: cddbd v1.5.2PL0 Copyright (c) Steve Scherf et al.
# Submitted via: audiograbber 1.83.01
#
DISCID=25124413
DTITLE=Various Artist - Dance Energy 2
DYEAR=1900
DGENRE=Pop
TTITLE0=Definition Of Sound - Wear Your Love Like Heaven
TTITLE1=De La Soul - Ring Ring Ring (Ha Ha Hey)
TTITLE2=Massive - Unfinished Sympathy (Nellee Hooper Remix)
TTITLE3=Frances Nero - Footsteps Following Me
TTITLE4=The Source Ft Candi Staton - You Got The Love
TTITLE5=808 State - Ooops
TTITLE6=Wendell Williams - So Groovy
TTITLE7=LL Cool J - Around The Way Girl (Jervier Mix)
TTITLE8=Chapter And The Verse - The Black Whip
TTITLE9=The KLF - Last Train To Trancentral (The Iron Horse)
TTITLE10=Black Box - Strike It Up
TTITLE11=Katherine E - I'm Alright
TTITLE12=C&C Music Factory - Gonna Make You Sweat
TTITLE13=Clubhouse - Deep In My Heart
TTITLE14=Diana Brown and Barrie K Sharpe - Love Or Nothing
TTITLE15=Teena Marie - Since Day One
TTITLE16=Young Disciples - Apparently Nothin'
TTITLE17=Scritti Politti Ft Shabba Ranks - She's A Woman
TTITLE18=Jesus Loves You - Generation Of Love (La La Gone Gaga Mix)
EXTD=
EXTT0=
EXTT1=
EXTT2=
EXTT3=
EXTT4=
EXTT5=
EXTT6=
EXTT7=
EXTT8=
EXTT9=
EXTT10=
EXTT11=
EXTT12=
EXTT13=
EXTT14=
EXTT15=
EXTT16=
EXTT17=
EXTT18=
PLAYORDER=
